<?xml version="1.0" encoding="UTF-8" standalone="no"?>
<!-- Generator: Adobe Illustrator 19.0.0, SVG Export Plug-In . SVG Version: 6.00 Build 0)  -->

<svg
   xmlns:dc="http://purl.org/dc/elements/1.1/"
   xmlns:cc="http://creativecommons.org/ns#"
   xmlns:rdf="http://www.w3.org/1999/02/22-rdf-syntax-ns#"
   xmlns:svg="http://www.w3.org/2000/svg"
   xmlns="http://www.w3.org/2000/svg"
   xmlns:sodipodi="http://sodipodi.sourceforge.net/DTD/sodipodi-0.dtd"
   xmlns:inkscape="http://www.inkscape.org/namespaces/inkscape"
   version="1.1"
   id="Capa_1"
   x="0px"
   y="0px"
   viewBox="0 0 512.002 512.002"
   style="enable-background:new 0 0 512.002 512.002;"
   xml:space="preserve"
   sodipodi:docname="cricket-bat.svg"
   inkscape:version="0.92.3 (2405546, 2018-03-11)"><metadata
   id="metadata3859"><rdf:RDF><cc:Work
       rdf:about=""><dc:format>image/svg+xml</dc:format><dc:type
         rdf:resource="http://purl.org/dc/dcmitype/StillImage" /></cc:Work></rdf:RDF></metadata><defs
   id="defs3857" /><sodipodi:namedview
   pagecolor="#ffffff"
   bordercolor="#666666"
   borderopacity="1"
   objecttolerance="10"
   gridtolerance="10"
   guidetolerance="10"
   inkscape:pageopacity="0"
   inkscape:pageshadow="2"
   inkscape:window-width="1920"
   inkscape:window-height="1003"
   id="namedview3855"
   showgrid="false"
   inkscape:zoom="1.5449158"
   inkscape:cx="256.00101"
   inkscape:cy="256.00101"
   inkscape:window-x="0"
   inkscape:window-y="0"
   inkscape:window-maximized="1"
   inkscape:current-layer="Capa_1" />
<g
   id="g3810">
	<g
   id="g3808">
		<path
   d="M206.5,192.363c-3.9-3.9-10.23-3.9-14.14,0c-3.9,3.91-3.9,10.24,0,14.14c3.91,3.91,10.24,3.91,14.14,0    C210.41,202.603,210.41,196.273,206.5,192.363z"
   id="path3806" />
	</g>
</g>
<g
   id="g3816">
	<g
   id="g3814">
		<path
   d="M361.199,318.771l10.062-23.467c1.574-3.67,0.813-7.926-1.936-10.823l-24.728-26.065l158.428-150.451    c0.063-0.059,0.124-0.118,0.185-0.179c7.109-7.108,10.177-17.236,8.206-27.092c-8.106-40.557-39.55-72-80.105-80.106    c-9.853-1.971-19.982,1.097-27.093,8.206c-0.061,0.061-0.12,0.122-0.179,0.185l-148.112,155.97L107.965,8.981    c-0.061-0.063-0.121-0.126-0.183-0.188C100.674,1.685,90.55-1.38,80.688,0.587C60.834,4.563,42.79,14.22,28.512,28.509    C14.217,42.793,4.56,60.837,0.584,80.694C0.196,82.631,0,84.61,0,86.574c0,8.01,3.121,15.543,8.789,21.211    c0.063,0.061,0.125,0.123,0.189,0.183l158.481,150.348l-24.789,26.171c-2.745,2.897-3.504,7.149-1.931,10.817l10.062,23.466    L8.79,460.792c-5.667,5.666-8.787,13.198-8.787,21.211s3.12,15.545,8.786,21.21C14.455,508.88,21.987,512,30,512    s15.545-3.12,21.211-8.786l142.022-142.013l23.466,10.063c1.27,0.545,2.608,0.81,3.938,0.81c2.511,0,4.985-0.945,6.88-2.74    l28.502-27.002l28.459,26.999c1.896,1.797,4.371,2.744,6.884,2.744c1.329,0,2.669-0.265,3.938-0.81l23.466-10.062l142.022,142.011    C466.455,508.88,473.987,512,482,512s15.545-3.12,21.21-8.786c5.667-5.666,8.787-13.198,8.787-21.211s-3.12-15.545-8.786-21.211    L361.199,318.771z M418.437,22.86c2.365-2.316,5.701-3.311,8.953-2.661c32.611,6.52,57.896,31.804,64.415,64.416    c0.649,3.249-0.345,6.587-2.66,8.951L330.833,243.907l-61.123-64.43L418.437,22.86z M37.068,489.073    C35.18,490.96,32.67,492,30,492s-5.18-1.04-7.069-2.929c-1.888-1.889-2.928-4.398-2.928-7.068s1.04-5.18,2.929-7.068    l15.548-15.549l14.138,14.138L37.068,489.073z M66.761,459.382l-14.14-14.139L159.31,338.545c0.565,1.185,1.207,2.325,1.918,3.419    c0.244,2.174,1.193,4.284,2.86,5.951s3.776,2.615,5.95,2.859c1.095,0.712,2.235,1.354,3.42,1.918L66.761,459.382z     M161.712,293.465l20.256-21.385l22.483,21.329l-29.929,29.929L161.712,293.465z M218.536,350.291l-29.871-12.81l30.302-30.302    l22.522,21.366L218.536,350.291z M220.648,234.795l102.687,102.687l-29.868,12.808l-104.995-99.611L22.854,93.565    C21.013,91.683,20,89.205,20,86.574c0-0.651,0.065-1.311,0.195-1.956C23.393,68.65,31.156,54.14,42.654,42.652    C54.137,31.16,68.646,23.396,84.611,20.199c3.246-0.648,6.585,0.344,8.949,2.658l256.726,270.614l-12.808,29.867L234.791,220.652    c-3.906-3.904-10.236-3.904-14.143,0C216.743,224.557,216.743,230.889,220.648,234.795z M445.239,459.382l-106.697-106.69    c1.186-0.565,2.325-1.207,3.419-1.918c2.174-0.244,4.283-1.193,5.95-2.859c1.667-1.667,2.616-3.777,2.86-5.951    c0.711-1.095,1.354-2.235,1.918-3.419l106.689,106.698L445.239,459.382z M489.068,489.072C487.18,490.96,484.67,492,482,492    c-2.67,0-5.18-1.04-7.068-2.929l-15.549-15.548l14.138-14.138l15.549,15.55c1.887,1.889,2.927,4.398,2.927,7.068    S490.957,487.183,489.068,489.072z"
   id="path3812" />
	</g>
</g>
<g
   id="g3822">
	<g
   id="g3820">
		<path
   d="M256,386.003c-33.084,0-60,26.916-60,60s26.916,60,60,60s60-26.916,60-60S289.084,386.003,256,386.003z M256,486.003    c-22.056,0-40-17.944-40-40c0-22.056,17.944-40,40-40c22.056,0,40,17.944,40,40C296,468.059,278.056,486.003,256,486.003z"
   id="path3818" />
	</g>
</g>
<g
   id="g3824">
</g>
<g
   id="g3826">
</g>
<g
   id="g3828">
</g>
<g
   id="g3830">
</g>
<g
   id="g3832">
</g>
<g
   id="g3834">
</g>
<g
   id="g3836">
</g>
<g
   id="g3838">
</g>
<g
   id="g3840">
</g>
<g
   id="g3842">
</g>
<g
   id="g3844">
</g>
<g
   id="g3846">
</g>
<g
   id="g3848">
</g>
<g
   id="g3850">
</g>
<g
   id="g3852">
</g>
<path
   style="fill:#ffffff;stroke-width:0.64728445"
   d="m 25.567736,511.37426 c -3.117479,-0.49563 -9.409449,-2.99495 -11.98958,-4.76255 C 0.56144393,497.69422 -3.3696345,480.94157 4.325579,467.181 5.8658414,464.4267 23.273153,446.61839 78.703888,391.08928 l 72.367422,-72.49586 -5.44503,-12.62205 c -2.99477,-6.94213 -5.45497,-13.45186 -5.46711,-14.46608 -0.0122,-1.01422 0.42096,-2.76188 0.96246,-3.88371 0.54151,-1.12182 6.7861,-8.15651 13.87688,-15.63265 l 12.89234,-13.59297 -3.03487,-2.99759 C 163.1868,253.7497 130.07181,222.32805 91.26711,185.57248 9.0429608,107.69029 6.2089455,104.93964 3.9898727,100.86247 0.01136515,93.552639 -0.56334627,86.367095 2.0132792,76.14938 11.241883,39.552956 39.232877,11.462898 75.925853,1.9752178 89.268037,-1.4746625 99.325925,1.0084479 108.33223,9.9757702 c 2.42719,2.4166698 36.51344,38.2550138 75.74725,79.6407648 39.23381,41.385755 71.56807,75.246815 71.85391,75.246815 0.60373,0 1.69218,-1.13969 82.52717,-86.412472 33.74791,-35.600646 63.26135,-66.580254 65.58543,-68.8435719 8.57036,-8.3462833 18.43006,-10.8937011 30.75603,-7.9463245 36.9793,8.8424654 65.84387,37.4389444 75.18671,74.4883984 2.57689,10.218751 2.00197,17.403162 -1.97779,24.71529 -2.21382,4.06752 -3.97383,5.77728 -89.54153,86.98532 -40.40673,38.34801 -73.46679,70.09903 -73.46679,70.5578 0,0.45877 5.67992,6.8445 12.62205,14.1905 6.94212,7.34601 13.01312,14.28324 13.49111,15.41606 1.29125,3.06027 0.65438,5.41538 -5.03092,18.6043 l -5.16193,11.97477 72.37131,72.49586 c 55.43766,55.53306 72.84182,73.33723 74.38219,76.09172 6.97593,12.47433 4.58515,27.04425 -6.02955,36.74549 -8.80142,8.04401 -20.7818,9.87349 -32.17028,4.9126 -3.8452,-1.67498 -8.27875,-5.96985 -77.32861,-74.90969 l -73.24954,-73.13283 -12.19201,5.20358 c -14.89744,6.35827 -14.44607,6.22151 -17.66937,5.35356 -2.12028,-0.57093 -5.53535,-3.4543 -17.67033,-14.91915 -8.27315,-7.8163 -15.18773,-14.21145 -15.36573,-14.21145 -0.17801,0 -7.09259,6.39515 -15.36574,14.21145 -12.13497,11.46485 -15.55004,14.34822 -17.67033,14.91915 -3.2233,0.86795 -2.77193,1.00471 -17.66937,-5.35356 l -12.19201,-5.20358 -73.24954,73.13283 c -68.313863,68.20502 -73.517051,73.24926 -77.21965,74.8608 -5.949436,2.58945 -11.626318,3.44899 -17.066634,2.58406 z m 8.738341,-20.22499 c 1.476917,-0.69113 6.061968,-4.71814 10.673536,-9.37448 l 8.084397,-8.16287 -7.286146,-7.27889 -7.286144,-7.27889 -8.996399,9.06199 c -7.417621,7.47169 -9.07544,9.48795 -9.446808,11.4893 -0.635403,3.42426 0.109822,6.5843 2.114646,8.9669 3.194778,3.79678 7.557615,4.72265 12.142918,2.57694 z m 451.693753,0.35711 c 4.44344,-1.85659 6.9046,-6.77627 5.95367,-11.90095 -0.37137,-2.00135 -2.02919,-4.01761 -9.44681,-11.4893 l -8.9964,-9.06199 -7.28614,7.27889 -7.28615,7.27889 8.0844,8.16287 c 10.17142,10.27016 13.54637,12.00083 18.97743,9.73159 z M 120.61011,406.08527 c 52.67031,-52.67321 53.27205,-53.30392 51.78129,-54.27375 -0.82957,-0.53968 -2.52777,-1.32569 -3.7738,-1.74669 -1.24602,-0.421 -2.73836,-1.12569 -3.31631,-1.56598 -1.30635,-0.99521 -3.79814,-5.02025 -3.80139,-6.1405 -0.001,-0.45754 -0.48815,-1.57319 -1.08181,-2.47923 l -1.07938,-1.64735 -53.61161,53.60869 -53.611607,53.60869 6.942722,6.96432 c 3.818498,3.83037 7.239631,6.96432 7.602518,6.96432 0.362887,0 24.640107,-23.98163 53.949377,-53.29252 z m 332.33369,46.3282 6.94272,-6.96432 -53.61161,-53.60869 -53.61161,-53.60869 -1.07937,1.64735 c -0.59367,0.90604 -1.08048,2.02169 -1.08181,2.47923 -0.003,1.12025 -2.49504,5.14529 -3.8014,6.1405 -0.57795,0.44029 -2.07029,1.14498 -3.31631,1.56598 -1.24602,0.421 -2.94422,1.20701 -3.77379,1.74669 -1.49076,0.96983 -0.88903,1.60054 51.78129,54.27375 29.30926,29.31089 53.58648,53.29252 53.94937,53.29252 0.36289,0 3.78402,-3.13395 7.60252,-6.96432 z M 230.21414,339.69321 c 6.17263,-5.83944 11.22297,-10.87281 11.22297,-11.18528 0,-0.78304 -21.80603,-21.24199 -22.64062,-21.24199 -1.28859,0 -30.4252,29.72218 -29.77061,30.36891 0.76488,0.75571 28.93379,12.95448 29.53714,12.7913 0.23548,-0.0637 5.47848,-4.89351 11.65112,-10.73294 z m 77.67502,4.75119 c 7.95218,-3.40429 14.74216,-6.46965 15.08886,-6.81193 0.40621,-0.40103 -17.95292,-19.20665 -51.63186,-52.88751 -56.50294,-56.50617 -54.38577,-54.12055 -52.90627,-59.61498 0.83154,-3.08814 4.29549,-6.31425 7.40636,-6.89785 5.19214,-0.97406 3.85029,-2.17796 59.42013,53.31165 28.73418,28.69269 52.35133,52.03626 52.48256,51.87458 0.13123,-0.16167 3.07791,-6.95012 6.54817,-15.08542 l 6.30956,-14.79147 -1.50746,-1.65442 C 334.2812,275.62435 92.812968,21.794654 91.365847,20.959555 88.662508,19.399525 83.388409,19.806127 76.055925,22.139858 55.503557,28.681122 38.554071,42.659056 28.180948,61.621481 24.991418,67.452052 21.339782,77.304258 20.32304,82.82232 18.811864,91.023763 5.6554357,77.692985 157.14838,221.46088 c 74.83932,71.02304 136.11891,129.14187 136.17688,129.15296 0.058,0.0111 6.61173,-2.76517 14.5639,-6.16944 z m -118.044,-36.07461 15.06801,-15.07826 -11.50215,-10.81977 -11.50215,-10.81978 -8.152,8.58318 c -4.48359,4.72074 -9.09107,9.65809 -10.23884,10.97188 l -2.08686,2.38871 6.34417,14.91462 c 3.4893,8.20304 6.49214,14.91981 6.67299,14.92615 0.18084,0.006 7.10942,-6.77369 15.39683,-15.06673 z M 411.33433,167.91917 C 500.90498,82.851221 493.33428,90.958161 491.49795,82.077457 490.00779,74.87089 485.61294,64.183048 481.38842,57.492065 470.57201,40.360543 456.22404,28.980749 437.5643,22.733863 c -8.67099,-2.902866 -14.00528,-3.462121 -16.92371,-1.774308 -2.33525,1.350548 -151.23207,157.958715 -150.925,158.741395 0.56254,1.43381 60.51704,64.0636 61.214,63.94549 0.44798,-0.0759 36.63012,-34.15318 80.40474,-75.72727 z"
   id="path3861"
   inkscape:connector-curvature="0" /><path
   style="fill:#ffffff;stroke-width:0.64728445"
   d="m 195.47991,208.25764 c -6.57103,-2.73589 -7.32369,-13.12942 -1.2238,-16.89936 2.78896,-1.72367 7.30078,-1.79021 10.11072,-0.14912 6.20111,3.62164 5.94984,13.60776 -0.41843,16.6297 -2.3352,1.10813 -6.33747,1.30604 -8.46849,0.41878 z"
   id="path3863"
   inkscape:connector-curvature="0" /><path
   style="fill:#ffffff;stroke-width:0.64728445"
   d="m 249.83373,505.33159 c -20.04114,-2.14329 -37.98909,-14.52929 -46.89252,-32.36083 -4.62177,-9.25635 -6.49566,-17.10332 -6.48187,-27.14301 0.0317,-23.05695 13.1693,-43.61245 34.34393,-53.7354 8.88375,-4.24706 14.25215,-5.39686 25.19774,-5.39686 10.94558,0 16.31398,1.1498 25.19773,5.39686 21.09065,10.08281 34.3124,30.76989 34.34393,53.7354 0.0138,10.03969 -1.8601,17.88666 -6.48187,27.14301 -10.86492,21.75996 -35.00729,34.95101 -59.22707,32.36083 z m 18.60453,-21.13569 c 6.06171,-1.8909 13.55337,-6.73765 17.6503,-11.4189 3.75442,-4.28989 7.79862,-12.04564 9.05057,-17.35674 2.18906,-9.2865 0.62909,-20.70732 -3.95954,-28.98847 -3.24908,-5.86365 -10.96443,-13.38552 -16.44358,-16.03121 -7.10278,-3.4297 -11.20563,-4.39138 -18.735,-4.39138 -11.44266,0 -19.94141,3.4413 -27.89479,11.2951 -5.79481,5.72226 -9.1231,11.33468 -10.94413,18.45484 -2.52239,9.86245 -1.40066,19.80618 3.24021,28.72311 3.34748,6.43183 7.34222,10.91527 13.24054,14.8603 10.44776,6.98789 22.54396,8.6751 34.79542,4.85335 z"
   id="path3865"
   inkscape:connector-curvature="0" /></svg>