<?xml version="1.0" encoding="UTF-8" standalone="no"?>
<!-- Generator: Adobe Illustrator 19.0.0, SVG Export Plug-In . SVG Version: 6.00 Build 0)  -->

<svg
   xmlns:dc="http://purl.org/dc/elements/1.1/"
   xmlns:cc="http://creativecommons.org/ns#"
   xmlns:rdf="http://www.w3.org/1999/02/22-rdf-syntax-ns#"
   xmlns:svg="http://www.w3.org/2000/svg"
   xmlns="http://www.w3.org/2000/svg"
   xmlns:sodipodi="http://sodipodi.sourceforge.net/DTD/sodipodi-0.dtd"
   xmlns:inkscape="http://www.inkscape.org/namespaces/inkscape"
   version="1.1"
   id="Capa_1"
   x="0px"
   y="0px"
   viewBox="0 0 512 512"
   style="enable-background:new 0 0 512 512;"
   xml:space="preserve"
   sodipodi:docname="refresh.svg"
   inkscape:version="0.92.3 (2405546, 2018-03-11)"><metadata
   id="metadata49"><rdf:RDF><cc:Work
       rdf:about=""><dc:format>image/svg+xml</dc:format><dc:type
         rdf:resource="http://purl.org/dc/dcmitype/StillImage" /></cc:Work></rdf:RDF></metadata><defs
   id="defs47" /><sodipodi:namedview
   pagecolor="#ffffff"
   bordercolor="#666666"
   borderopacity="1"
   objecttolerance="10"
   gridtolerance="10"
   guidetolerance="10"
   inkscape:pageopacity="0"
   inkscape:pageshadow="2"
   inkscape:window-width="1920"
   inkscape:window-height="1003"
   id="namedview45"
   showgrid="false"
   inkscape:zoom="0.4609375"
   inkscape:cx="256"
   inkscape:cy="256"
   inkscape:window-x="0"
   inkscape:window-y="0"
   inkscape:window-maximized="1"
   inkscape:current-layer="Capa_1" />
<g
   id="g6">
	<g
   id="g4">
		<path
   d="M493.815,70.629c-11.001-1.003-20.73,7.102-21.733,18.102l-2.65,29.069C424.473,47.194,346.429,0,256,0    C158.719,0,72.988,55.522,30.43,138.854c-5.024,9.837-1.122,21.884,8.715,26.908c9.839,5.024,21.884,1.123,26.908-8.715    C102.07,86.523,174.397,40,256,40c74.377,0,141.499,38.731,179.953,99.408l-28.517-20.367c-8.989-6.419-21.48-4.337-27.899,4.651    c-6.419,8.989-4.337,21.479,4.651,27.899l86.475,61.761c12.674,9.035,30.155,0.764,31.541-14.459l9.711-106.53    C512.919,81.362,504.815,71.632,493.815,70.629z"
   id="path2" />
	</g>
</g>
<g
   id="g12">
	<g
   id="g10">
		<path
   d="M472.855,346.238c-9.838-5.023-21.884-1.122-26.908,8.715C409.93,425.477,337.603,472,256,472    c-74.377,0-141.499-38.731-179.953-99.408l28.517,20.367c8.989,6.419,21.479,4.337,27.899-4.651    c6.419-8.989,4.337-21.479-4.651-27.899l-86.475-61.761c-12.519-8.944-30.141-0.921-31.541,14.459l-9.711,106.53    c-1.003,11,7.102,20.73,18.101,21.733c11.014,1.001,20.731-7.112,21.733-18.102l2.65-29.069C87.527,464.806,165.571,512,256,512    c97.281,0,183.012-55.522,225.57-138.854C486.594,363.309,482.692,351.262,472.855,346.238z"
   id="path8" />
	</g>
</g>
<g
   id="g14">
</g>
<g
   id="g16">
</g>
<g
   id="g18">
</g>
<g
   id="g20">
</g>
<g
   id="g22">
</g>
<g
   id="g24">
</g>
<g
   id="g26">
</g>
<g
   id="g28">
</g>
<g
   id="g30">
</g>
<g
   id="g32">
</g>
<g
   id="g34">
</g>
<g
   id="g36">
</g>
<g
   id="g38">
</g>
<g
   id="g40">
</g>
<g
   id="g42">
</g>
<path
   style="fill:#ffffff;stroke-width:2.16949153"
   d="m 428.02894,181.59992 c -25.54136,-18.36496 -47.24844,-34.66737 -48.23795,-36.22758 -3.84534,-6.0631 -2.00877,-18.21705 3.5405,-23.43033 8.57566,-8.05641 16.44468,-6.64417 35.05007,6.29038 8.99452,6.25302 16.77943,10.94335 17.29981,10.42296 1.8548,-1.8548 -18.86145,-27.19932 -33.58668,-41.090344 C 382.97075,79.52446 371.98097,72.030479 347.06267,60.038461 318.68668,46.382403 297.98244,41.418815 264.02712,40.13169 241.26596,39.268897 231.84671,39.890189 215.21356,43.351433 152.46943,56.408044 102.24858,92.498347 70.009084,147.69999 c -10.234052,17.52312 -17.623693,22.06025 -28.554993,17.53236 -3.944762,-1.63397 -8.145334,-5.79162 -10.195906,-10.09171 -3.387606,-7.10389 -3.295989,-7.70085 3.205239,-20.88465 9.30488,-18.86932 29.81759,-45.423875 49.617288,-64.23165 79.862158,-75.8612431 201.774898,-90.548917 296.310748,-35.698613 31.08085,18.033306 63.70493,47.969259 81.37401,74.669033 3.12712,4.72542 6.40618,8.59168 7.28676,8.59168 0.88057,0 2.27603,-7.73782 3.101,-17.19516 1.26078,-14.453221 2.39048,-18.085672 7.08445,-22.779665 12.22826,-12.228247 31.02673,-3.788374 31.02673,13.929943 0,10.507512 -8.26154,103.089042 -9.82058,110.052632 -1.74522,7.7952 -9.63115,13.63223 -18.24952,13.50797 -6.42699,-0.0927 -15.53712,-5.72744 -54.16537,-33.50224 z"
   id="path51"
   inkscape:connector-curvature="0" /><path
   style="fill:#ffffff;stroke-width:2.16949153"
   d="M 211.53814,507.17686 C 144.9533,494.52189 82.557425,453.21793 45.700992,397.3983 c -3.495969,-5.2947 -3.566978,-5.15495 -4.987073,9.81526 -1.851188,19.51468 -5.593309,27.87351 -14.045976,31.37472 -5.416543,2.24361 -7.981854,2.25141 -13.319405,0.0405 -13.09944892,-5.42597 -13.36803652,-8.08556 -7.364331,-72.92241 4.955963,-53.52179 5.792593,-58.68441 10.228648,-63.11826 2.657168,-2.65584 7.801911,-5.42218 11.432763,-6.14742 5.901978,-1.17889 11.534603,2.18051 53.152542,31.70118 25.60305,18.16089 48.23776,35.08316 50.29936,37.60505 4.37807,5.35554 4.87839,12.69267 1.32099,19.37195 -7.50139,14.08438 -18.04646,13.61816 -39.457553,-1.74452 -9.12717,-6.54884 -16.594855,-11.04946 -16.594855,-10.00137 0,3.85848 19.293088,27.72031 32.863118,40.64533 70.59588,67.24033 179.40714,77.93761 260.48414,25.6083 30.82007,-19.89212 51.88447,-41.68194 71.43871,-73.89899 10.69925,-17.62783 13.61262,-20.18395 23.10925,-20.2756 9.6105,-0.0927 17.7997,8.08056 17.7997,17.76512 0,14.13103 -24.5025,49.82334 -53.45666,77.86925 -30.49531,29.53873 -68.42199,50.65365 -111.4247,62.03349 -25.68368,6.79669 -80.2089,8.89061 -105.64152,4.05695 z"
   id="path53"
   inkscape:connector-curvature="0" /></svg>